<svg t="1648808032879" class="icon" viewBox="0 0 1024 1024" version="1.1" xmlns="http://www.w3.org/2000/svg" p-id="1363" width="200" height="200"><path d="M981.333333 810.666667H554.666667v170.666666h256v42.666667H213.333333v-42.666667h256v-170.666666H42.666667c-35.328 0-42.666667-7.338667-42.666667-42.666667V42.666667c0-35.328 7.338667-42.666667 42.666667-42.666667h938.666666c35.328 0 42.666667 7.338667 42.666667 42.666667v725.333333c0 35.328-7.338667 42.666667-42.666667 42.666667z m0-725.333334c0-35.328-7.338667-42.666667-42.666666-42.666666H85.333333c-35.370667 0-42.666667 7.338667-42.666666 42.666666v597.333334c0 35.370667 7.296 42.666667 42.666666 42.666666h853.333334c35.328 0 42.666667-7.296 42.666666-42.666666V85.333333z m-341.333333 384V341.333333h85.333333v213.333334h-85.333333v-85.333334z m-170.666667 0V128h85.333334v426.666667h-85.333334v-85.333334z m-170.666666 0V298.666667h85.333333v256H298.666667v-85.333334z" p-id="1364"></path></svg>