<svg t="1648808433401" class="icon" viewBox="0 0 1024 1024" version="1.1" xmlns="http://www.w3.org/2000/svg" p-id="3508" width="200" height="200"><path d="M362.524 218.292c-23.294-2.592-58.33 5.9-77.846 18.922L35.874 403.086C16.356 416.106 0.4 445.928 0.4 469.376v511.6c0 23.452 19.172 42.624 42.624 42.624H980.98c23.45 0 42.622-19.172 42.622-42.624v-511.6c0-23.45-15.958-53.272-35.472-66.292l-171.678-114.444c-19.516-13.02-54.52-25.792-77.846-28.382l-376.082-41.966z" fill="#FFCE54" p-id="3509"></path><path d="M738.634 260.26l-188.07-20.984-188.042-20.982c-23.294-2.592-58.298 5.9-77.814 18.89l-124.434 82.966-124.402 82.936c-11.868 7.9-22.42 22.044-28.854 37.158l504.2 331.552 505.356-332.522c-6.494-14.738-16.83-28.446-28.448-36.19l-85.838-57.236-85.872-57.238c-19.514-12.986-54.486-25.728-77.782-28.35z" fill="#F6BB42" p-id="3510"></path><path d="M192.25 853.078H106.972c-11.772 0-21.294-9.556-21.294-21.328s9.524-21.326 21.294-21.326h85.278c11.772 0 21.326 9.554 21.326 21.326s-9.554 21.328-21.326 21.328zM362.774 938.322h-255.8c-11.772 0-21.294-9.524-21.294-21.294s9.524-21.326 21.294-21.326h255.8c11.772 0 21.326 9.554 21.326 21.326s-9.556 21.294-21.326 21.294zM549.626 621.04l-155.346 25.292-96.33-233.222 212.802-33.1-32.538 109.196zM876.308 229.126c10.93 67.072-34.598 130.274-101.638 141.172-67.074 10.928-130.274-34.598-141.204-101.64-10.898-67.072 34.628-130.272 101.672-141.17 67.072-10.93 130.274 34.598 141.17 101.638z" fill="#434A54" p-id="3511"></path><path d="M846.27 483.772L501.414 433.56l-54.3-274.69L767.642 0.4z" fill="#E6E9ED" p-id="3512"></path><path d="M385.474 381.54c1.53 9.554-4.934 18.518-14.458 20.078l-154.256 25.106c-9.524 1.532-18.516-4.934-20.078-14.458l-22.452-138.112a17.472 17.472 0 0 1 14.458-20.078l154.224-25.106c9.554-1.53 18.546 4.934 20.078 14.458l22.484 138.112z" fill="#ED5564" p-id="3513"></path><path d="M515.874 413.484c1.558 9.554-4.934 18.516-14.458 20.076l-207.15 33.694c-9.554 1.56-18.546-4.902-20.078-14.458l-39.344-241.688c-1.53-9.524 4.934-18.516 14.458-20.046L456.48 157.34c9.526-1.53 18.518 4.934 20.078 14.458l39.316 241.686z" fill="#F5F7FA" p-id="3514"></path><path d="M558.712 750.47c-11.708-13.084-28.726-21.296-47.65-21.296-18.954 0-35.97 8.212-47.68 21.296l-16.27 21.326v21.328c0 35.314 28.604 63.95 63.95 63.95 35.316 0 63.952-28.634 63.952-63.95v-21.328l-16.302-21.326z" fill="#DA4453" p-id="3515"></path><path d="M575.014 771.796c0 35.316-28.634 63.95-63.952 63.95-35.346 0-63.95-28.632-63.95-63.95s28.604-63.95 63.95-63.95c35.316 0.002 63.952 28.634 63.952 63.95z" fill="#ED5564" p-id="3516"></path></svg>