<svg t="1648808252703" class="icon" viewBox="0 0 1024 1024" version="1.1" xmlns="http://www.w3.org/2000/svg" p-id="2298" width="200" height="200"><path d="M401.8 677.05l-5.464-1.276-45.844 340.568h145.498V796.204c0-56.054-39.616-106.188-94.19-119.154zM162.364 675.672l-5.412 1.174c-61.568 13.324-109.814 65.754-109.814 119.36v220.138h161.02L162.364 675.672z" fill="#DFDFDE" p-id="2299"></path><path d="M278.77 417.762c-56.07 0-101.686 45.616-101.686 101.684s45.616 101.684 101.686 101.684 101.686-45.616 101.686-101.684-45.616-101.684-101.686-101.684z" fill="#FFD351" p-id="2300"></path><path d="M278.766 383.942c-74.718 0-135.506 60.786-135.506 135.504 0 74.718 60.786 135.506 135.506 135.506 74.718 0 135.506-60.788 135.506-135.506 0-74.716-60.788-135.504-135.506-135.504z m0 255.696c-66.274 0-120.19-53.918-120.19-120.19 0-66.272 53.916-120.188 120.19-120.188s120.19 53.916 120.19 120.19-53.916 120.188-120.19 120.188z" fill="#4B555F" p-id="2301"></path><path d="M372.538 639.714a30.276 30.276 0 0 0-2.162-0.062h-196.38c-88.568 0-160.626 72.056-160.626 160.622v216.068h15.316V800.276c0-80.124 65.186-145.308 145.31-145.308h196.38c0.332 0 0.71-0.014 1.046 0.02l0.668 0.038c79.176 0.88 143.592 66.038 143.592 145.25v216.068h15.316V800.276c0-87.472-71.056-159.444-158.46-160.562z" fill="#4B555F" p-id="2302"></path><path d="M261.366 698.016l-0.742-8.684-38.766-46.9-5.902-2.78H185.098l-7.594 8.648 17.896 137.21 30.044 231.816 15.192-1.97-29.716-229.26 50.446-88.08zM193.82 654.968h18.532l33.092 40.036-37.794 65.988-13.83-106.024zM372.176 639.652h-26.444l-5.8 2.658-38.822 45.04-1.004 8.51 46.802 90.706-28.59 228.824 15.196 1.9 28.884-231.168 17.378-137.798 0.06-1.016-7.66-7.656z m-21.886 120.072l-34.204-66.29 33.156-38.466h14.256l-13.208 104.756zM271.646 723.444h15.316v292.898h-15.316z" fill="#4B555F" p-id="2303"></path><path d="M301.198 687.244l-21.742 24.49-18.848-22.45-11.73 9.848 30.254 36.038 33.518-37.758zM453.312 884.372h15.316v131.97h-15.316zM81.396 884.372h15.316v131.97h-15.316zM711.85 0H337.16c-41.292 0-74.888 33.596-74.888 74.89v278.782l71.754-86.166h377.824c41.292 0 74.888-33.596 74.888-74.89V74.89C786.738 33.596 753.144 0 711.85 0z m59.572 192.616c0 32.848-26.726 59.574-59.572 59.574H326.852l-49.266 59.156V74.89c0-32.848 26.726-59.574 59.572-59.574h374.69c32.848 0 59.572 26.726 59.572 59.574v117.726z" fill="#4B555F" p-id="2304"></path><path d="M711.85 33.988H337.16c-22.552 0-40.9 18.348-40.9 40.902v184.858l21.846-26.232h393.744c22.55 0 40.9-18.348 40.9-40.9V74.89c0-22.554-18.348-40.902-40.9-40.902z" fill="#71CBDF" p-id="2305"></path><path d="M507.896 62.562v15.316h85.32l-20.338 65.47h-62.472l-27.258-80.786h-42.398c-8.262 0-14.984 6.722-14.984 14.982v1.056c0 8.262 6.724 14.982 14.984 14.982s14.982-6.722 14.982-14.982v-0.722h16.418l27.258 80.786h84.748l29.856-96.102h-106.116zM570.292 167.85c-11.622 0-21.076 9.456-21.076 21.076s9.456 21.076 21.076 21.076c11.622 0 21.076-9.456 21.076-21.076s-9.454-21.076-21.076-21.076z m0 26.836c-3.176 0-5.76-2.584-5.76-5.76s2.584-5.76 5.76-5.76c3.176 0 5.76 2.584 5.76 5.76s-2.584 5.76-5.76 5.76zM507.896 167.85c-11.622 0-21.074 9.456-21.074 21.076s9.452 21.076 21.074 21.076 21.076-9.456 21.076-21.076-9.456-21.076-21.076-21.076z m0 26.836c-3.176 0-5.758-2.584-5.758-5.76s2.582-5.76 5.758-5.76 5.76 2.584 5.76 5.76-2.584 5.76-5.76 5.76zM467.642 580.608v75.506h15.316v-60.19h113.846v412.758h-47.94v15.316h63.256V580.608z" fill="#4B555F" p-id="2306"></path><path d="M500.826 614.864v63.918c29.764 31.96 48.04 74.74 48.04 121.506v189.454h30.07V614.864h-78.11z" fill="#71CBDF" p-id="2307"></path><path d="M667.564 451.702V1024h144.466V451.702h-144.466z m129.15 556.982H682.88V467.018h113.836v541.666z" fill="#4B555F" p-id="2308"></path><path d="M700.75 484.884h78.098v505.932h-78.098z" fill="#FFD351" p-id="2309"></path><path d="M866.162 325.142V1024h144.466V325.142h-144.466z m129.15 683.542h-113.836V340.458h113.836v668.226z" fill="#4B555F" p-id="2310"></path><path d="M899.344 358.326h78.1v632.49h-78.1z" fill="#F58E70" p-id="2311"></path></svg>